<mxfile host="65bd71144e">
    <diagram id="jTH4RjyvMY3KB1mQY_Vs" name="Page-1">
        <mxGraphModel dx="1129" dy="1793" grid="0" gridSize="10" guides="1" tooltips="1" connect="1" arrows="1" fold="1" page="0" pageScale="1" pageWidth="827" pageHeight="1169" math="0" shadow="0">
            <root>
                <mxCell id="0"/>
                <mxCell id="1" parent="0"/>
                <mxCell id="25" value="0" style="edgeStyle=none;html=1;exitX=0.5;exitY=1;exitDx=0;exitDy=0;entryX=0.5;entryY=0;entryDx=0;entryDy=0;fontSize=40;" edge="1" parent="1" source="22" target="35">
                    <mxGeometry relative="1" as="geometry">
                        <mxPoint x="106" y="438" as="targetPoint"/>
                    </mxGeometry>
                </mxCell>
                <mxCell id="26" value="1" style="edgeStyle=none;html=1;exitX=0.5;exitY=1;exitDx=0;exitDy=0;entryX=0.5;entryY=0;entryDx=0;entryDy=0;fontSize=40;" edge="1" parent="1" source="22">
                    <mxGeometry relative="1" as="geometry">
                        <mxPoint x="706" y="438" as="targetPoint"/>
                    </mxGeometry>
                </mxCell>
                <mxCell id="37" value="X" style="edgeStyle=none;html=1;exitX=0.5;exitY=0;exitDx=0;exitDy=0;startArrow=classic;startFill=1;endArrow=none;endFill=0;fontSize=40;" edge="1" parent="1" source="22">
                    <mxGeometry relative="1" as="geometry">
                        <mxPoint x="406" y="71.018798828125" as="targetPoint"/>
                    </mxGeometry>
                </mxCell>
                <mxCell id="22" value="q0(X)" style="rhombus;whiteSpace=wrap;html=1;fontSize=40;fillColor=#66B2FF;" vertex="1" parent="1">
                    <mxGeometry x="318" y="162" width="176" height="163" as="geometry"/>
                </mxCell>
                <mxCell id="35" value="0" style="rhombus;whiteSpace=wrap;html=1;fontSize=40;fillColor=#CC99FF;" vertex="1" parent="1">
                    <mxGeometry x="19" y="438" width="176" height="163" as="geometry"/>
                </mxCell>
                <mxCell id="38" value="?" style="rhombus;whiteSpace=wrap;html=1;fontSize=40;fillColor=#FFCC99;" vertex="1" parent="1">
                    <mxGeometry x="618" y="438" width="176" height="163" as="geometry"/>
                </mxCell>
            </root>
        </mxGraphModel>
    </diagram>
</mxfile>